<svg xmlns="http://www.w3.org/2000/svg" xmlns:xlink="http://www.w3.org/1999/xlink" version="1.1" x="0px" y="0px" width="100px" height="100px" viewBox="0 0 100 100" enable-background="new 0 0 100 100" xml:space="preserve">
<g fill="#8ba27a">
	<path d="M29.529,92.352h40.941c8.953,0,16.238-7.285,16.238-16.238V35.172c0-6.916-4.355-12.82-10.459-15.156v4.634   c0,0.389-0.029,0.771-0.072,1.148c-0.113,0.987-0.369,1.932-0.75,2.811c-1.537,3.55-5.07,6.041-9.178,6.041   c-4.729,0-8.689-3.301-9.727-7.716c-0.088-0.372-0.158-0.749-0.203-1.136c-0.043-0.378-0.07-0.76-0.07-1.148v-5.716h-12.5v5.716   c0,0.389-0.027,0.771-0.07,1.148c-0.045,0.387-0.115,0.764-0.203,1.136c-1.037,4.415-5,7.716-9.727,7.716   c-4.107,0-7.643-2.491-9.18-6.041c-0.379-0.879-0.635-1.823-0.748-2.811c-0.045-0.378-0.072-0.76-0.072-1.148v-4.634   c-6.104,2.336-10.459,8.24-10.459,15.156v40.941C13.291,85.066,20.576,92.352,29.529,92.352z M21.291,49.694h57.418v26.419   c0,4.543-3.697,8.238-8.238,8.238H29.529c-4.543,0-8.238-3.695-8.238-8.238V49.694z"/>
	<path d="M30.473,26.934c0.723,1.035,1.92,1.716,3.277,1.716c1.359,0,2.555-0.681,3.277-1.716c0.238-0.342,0.412-0.728,0.535-1.136   c0.111-0.366,0.188-0.746,0.188-1.148v-5.716v-7.285c0-2.209-1.791-4-4-4s-4,1.791-4,4v7.285v5.716   c0,0.402,0.078,0.782,0.188,1.148C30.061,26.207,30.234,26.592,30.473,26.934z"/>
	<path d="M62.973,26.934c0.723,1.035,1.918,1.716,3.277,1.716c1.357,0,2.553-0.681,3.277-1.716c0.238-0.342,0.412-0.728,0.535-1.136   c0.109-0.366,0.188-0.746,0.188-1.148v-5.716v-7.285c0-2.209-1.791-4-4-4s-4,1.791-4,4v7.285v5.716   c0,0.402,0.076,0.782,0.188,1.148C62.561,26.207,62.732,26.592,62.973,26.934z"/>
</g>
</svg>
