<svg version="1.1" id="Layer_1" xmlns="http://www.w3.org/2000/svg" xmlns:xlink="http://www.w3.org/1999/xlink" x="0px" y="0px" width="100px" height="100px" viewBox="0 0 100 100" enable-background="new 0 0 100 100" xml:space="preserve">
<g fill="#3D3042">
	<path d="M94.154,47.673c-0.376,0.269-0.751,0.524-1.125,0.778V10.684c0-5.243-3.944-9.48-8.796-9.48H15.815 c-4.852,0-8.795,4.237-8.795,9.48v37.802c-0.39-0.265-0.782-0.532-1.175-0.813c-2.915-2.034-4.826,0.735-3.039,3.381 c3.479,4.262,10.093,9.555,20.234,13.718c-10.729,36.55,26.188,42.356,25.623,23.616c0,0.348,0.021-10.637,0.036-18.427 c0.97,0.228,1.81,0.451,2.601,0.645c0.016,7.737,0.034,18.12,0.034,17.782c-0.564,18.74,36.378,12.934,25.624-23.616 c10.142-4.163,16.757-9.456,20.234-13.718C98.98,48.409,97.07,45.64,94.154,47.673z M57.729,56.983 c-4.516-0.227-6.19,1.714-6.412,4.708c-1.087-0.773-2.198-1.692-3.337-2.749c-0.189-0.177-0.37-0.334-0.544-0.48 c-0.99-1.044-2.625-1.605-5.164-1.479c-6.053,0.189-17.131,1.389-30.033-5.371V14.97c0-6.638,1.691-8.72,7.767-8.72H80.56 c5.757,0,7.789,2.474,7.789,8.72v36.335C75.195,58.416,63.871,57.176,57.729,56.983z"/>
	<path d="M64.344,30.502c-6.492,0-11.761,4.923-11.761,10.999S57.852,52.5,64.344,52.5c6.491,0,11.758-4.923,11.758-10.999 S70.835,30.502,64.344,30.502z"/>
	<ellipse cx="36.979" cy="41.501" rx="11.757" ry="10.999"/>
</g>
</svg>
